<?xml version="1.0" encoding="UTF-8" standalone="no"?>
<!-- Created with Inkscape (http://www.inkscape.org/) -->

<svg
   xmlns:dc="http://purl.org/dc/elements/1.1/"
   xmlns:cc="http://creativecommons.org/ns#"
   xmlns:rdf="http://www.w3.org/1999/02/22-rdf-syntax-ns#"
   xmlns:svg="http://www.w3.org/2000/svg"
   xmlns="http://www.w3.org/2000/svg"
   xmlns:sodipodi="http://sodipodi.sourceforge.net/DTD/sodipodi-0.dtd"
   xmlns:inkscape="http://www.inkscape.org/namespaces/inkscape"
   width="164.267mm"
   height="197.655mm"
   viewBox="0 0 164.267 197.655"
   version="1.1"
   id="svg8"
   inkscape:version="0.92.1 r15371"
   sodipodi:docname="Chemical_Original.svg"
   inkscape:export-filename="C:\icons\Hospitals\Chemicals_Original.png"
   inkscape:export-xdpi="300.01477"
   inkscape:export-ydpi="300.01477">
  <defs
     id="defs2" />
  <sodipodi:namedview
     id="base"
     pagecolor="#ffffff"
     bordercolor="#666666"
     borderopacity="1.0"
     inkscape:pageopacity="0.0"
     inkscape:pageshadow="2"
     inkscape:zoom="0.98994949"
     inkscape:cx="61.03815"
     inkscape:cy="397.55613"
     inkscape:document-units="mm"
     inkscape:current-layer="layer1"
     showgrid="false"
     inkscape:window-width="1920"
     inkscape:window-height="1017"
     inkscape:window-x="1912"
     inkscape:window-y="-8"
     inkscape:window-maximized="1" />
  <metadata
     id="metadata5">
    <rdf:RDF>
      <cc:Work
         rdf:about="">
        <dc:format>image/svg+xml</dc:format>
        <dc:type
           rdf:resource="http://purl.org/dc/dcmitype/StillImage" />
        <dc:title></dc:title>
      </cc:Work>
    </rdf:RDF>
  </metadata>
  <g
     inkscape:label="Layer 1"
     inkscape:groupmode="layer"
     id="layer1"
     transform="translate(0,-99.344997)">
    <path
       style="opacity:0.95999995;fill:#ffffff;fill-opacity:1;stroke:none;stroke-width:0.07272116;stroke-miterlimit:4;stroke-dasharray:none;stroke-opacity:1"
       d="M 75.378637,257.95245 C 70.883954,257.48976 66.794263,256.8048 63.147742,255.90397 51.666925,253.06775 42.500576,248.6285 33.051486,241.32839 29.990128,238.96327 23.448203,232.43287 20.132839,228.4325 12.069837,218.70358 6.1441877,205.11469 4.1783119,191.84509 c -0.9191261,-6.20408 -0.776387,-18.39081 0.2858368,-24.40406 0.4077274,-2.30815 1.8438381,-8.19156 2.5221149,-10.33253 1.3051857,-4.11978 4.3316564,-11.1134 6.1849504,-14.29228 1.993851,-3.41998 5.71878,-8.84073 7.589467,-11.04468 9.444134,-11.1266 20.283393,-18.95535 32.665617,-23.59304 9.69519,-3.63127 17.713456,-5.0626 28.489814,-5.08568 14.392204,-0.0308 26.357588,2.98183 38.538198,9.70314 6.4488,3.55848 11.80641,7.67447 17.74675,13.63397 12.87903,12.92055 20.6956,29.90207 21.96515,47.71937 0.5896,8.2746 0.2803,14.42228 -1.06478,21.16358 -1.83102,9.17675 -5.62059,18.8588 -10.1472,25.92532 -6.16865,9.62993 -15.74218,19.17905 -25.11393,25.0499 -8.62997,5.40617 -20.87739,9.86748 -30.596305,11.14519 -3.145676,0.41355 -15.424987,0.77038 -17.865358,0.51916 z"
       id="path4705"
       inkscape:connector-curvature="0" />
    <path
       style="fill:#000000;stroke-width:0.08466667"
       d="m 82.302386,295.61518 c -0.03,-0.0486 -6.57594,-6.49594 -14.546502,-14.32749 -30.95505,-30.41519 -43.18871,-42.50305 -45.22047,-44.68154 -3.54298,-3.79883 -6.65881,-7.558 -7.58834,-9.15512 -0.1997,-0.34313 -0.86535,-1.40493 -1.47921,-2.35955 -1.9459,-3.02605 -2.95141,-4.78613 -4.3532005,-7.62 -2.67865,-5.41516 -4.63762,-10.71967 -6.14409,-16.637 -1.81833,-7.14231 -2.32908003,-12.07665 -2.21288003,-21.37833 0.0667,-5.33585 0.19916005,-7.36501 0.69632003,-10.6639 0.45066,-2.99028 1.3739,-7.09398 2.45594,-10.91632 1.27159,-4.49193 3.20011,-9.22699 5.77996,-14.19145 3.9632505,-7.62657 9.4961005,-15.09082 15.2530605,-20.57759 3.37909,-3.22051 5.83573,-5.34321 8.42433,-7.2792 2.35978,-1.76486 3.33311,-2.43865 4.26364,-2.95155 0.3892,-0.21452 0.9988,-0.59351 1.35466,-0.84221 1.26698,-0.88543 3.24841,-1.97579 6.9547,-3.8271 3.9578,-1.97695 6.86093,-3.14898 11.21833,-4.52897 3.98792,-1.26297 7.05733,-2.00744 11.47234,-2.78254 4.16482,-0.73118 4.76188,-0.77144 12.319002,-0.8307 6.54807,-0.0513 7.88908,3.7e-4 11.38766,0.43918 2.72213,0.34142 3.86239,0.529 5.715,0.94011 11.384564,2.52639 20.174154,6.19996 28.884094,12.07201 4.35036,2.9329 4.55154,3.08604 7.48024,5.69385 4.05082,3.60698 7.51211,6.91557 8.23479,7.8715 0.28518,0.37723 1.20397,1.52408 2.04176,2.54855 3.32319,4.06369 6.01266,8.01356 8.15745,11.98033 2.73278,5.05427 4.58513,9.09271 5.65647,12.33207 1.93834,5.86092 3.14964,10.72607 3.80639,15.28829 0.43039,2.98981 0.53592,4.3923 0.64968,8.63401 0.11027,4.11179 0.016,9.04498 -0.22385,11.71073 -0.46992,5.22344 -2.01116,12.09499 -4.12054,18.37123 -1.14693,3.41255 -2.02754,5.48022 -4.0814,9.58306 -1.48139,2.95926 -2.54352,4.87631 -3.39485,6.12739 -0.35158,0.51667 -0.63924,0.9908 -0.63924,1.05362 0,0.17174 -1.43168,2.26992 -2.84058,4.163 -1.56381,2.10122 -3.23229,4.19376 -4.30908,5.40427 -1.59367,1.79157 -7.14494,7.57766 -12.87507,13.41966 -1.07335,1.09432 -5.81751,5.93255 -10.54257,10.75163 -12.58874,12.8392 -32.134624,32.74302 -34.526604,35.15887 l -2.07481,2.09551 h -0.48897 c -0.26894,0 -0.51354,-0.0397 -0.54356,-0.0883 z m 5.71725,-39.70539 c 4.19816,-0.24767 8.64084,-0.88351 10.62567,-1.52074 0.2794,-0.0897 1.0795,-0.29822 1.777994,-0.46338 2.51091,-0.5937 6.40833,-1.77002 7.74088,-2.33636 0.30605,-0.13009 0.9184,-0.3383 1.36079,-0.46272 0.47808,-0.13445 0.97603,-0.34143 1.22766,-0.51031 0.27705,-0.18593 0.6355,-0.32816 1.03733,-0.4116 0.40219,-0.0835 0.91331,-0.28641 1.48167,-0.58818 0.47722,-0.25339 1.02007,-0.50831 1.20634,-0.56649 0.45213,-0.14124 1.2062,-0.5193 2.032,-1.01878 0.37253,-0.22532 0.86783,-0.45537 1.10066,-0.51121 0.55405,-0.13288 0.82581,-0.27337 2.08251,-1.07662 0.57758,-0.36917 1.41211,-0.87082 1.85449,-1.11478 0.72133,-0.39779 1.67329,-1.00679 4.35643,-2.78699 0.46352,-0.30753 1.03502,-0.72381 1.27,-0.92507 0.23498,-0.20126 0.67489,-0.53169 0.97757,-0.73429 0.30269,-0.20259 0.87278,-0.66041 1.26688,-1.01738 0.39411,-0.35698 0.86097,-0.72272 1.03747,-0.81277 0.58429,-0.29808 2.12155,-1.68762 5.42237,-4.9013 0.78918,-0.76835 1.8649,-1.87325 2.3905,-2.45534 0.52559,-0.58208 1.46054,-1.61078 2.07765,-2.286 1.25201,-1.36989 2.33202,-2.69345 3.38527,-4.14866 0.38759,-0.53552 0.86395,-1.16417 1.05857,-1.397 0.5277,-0.63132 1.21647,-1.6913 1.48772,-2.28957 0.13199,-0.29107 0.38999,-0.70255 0.57334,-0.91441 0.51437,-0.5943 1.26844,-1.769 1.48605,-2.31498 0.10794,-0.2708 0.45115,-0.91148 0.7627,-1.42371 0.7522,-1.23674 3.35082,-6.49191 3.35082,-6.77634 0,-0.0326 0.14776,-0.38818 0.32835,-0.79014 0.31239,-0.69529 0.67336,-1.64585 1.90127,-5.00652 0.29775,-0.81492 0.56669,-1.68007 0.59764,-1.92257 0.031,-0.24248 0.14643,-0.68063 0.25662,-0.97366 0.48188,-1.28149 1.51088,-5.60164 1.65954,-6.96744 0.0507,-0.46566 0.12919,-0.98816 0.17447,-1.16109 0.0453,-0.17293 0.15532,-0.71178 0.24455,-1.19745 0.0892,-0.48566 0.21881,-1.10617 0.28796,-1.37891 0.0692,-0.27273 0.16533,-1.06738 0.21374,-1.76588 0.26694,-3.85294 0.28675,-4.60256 0.23617,-8.93688 -0.0599,-5.13276 -0.27531,-8.32601 -0.73356,-10.87512 -0.14232,-0.79163 -0.31616,-1.82033 -0.38631,-2.286 -0.43029,-2.8559 -2.20059,-9.6019 -2.66736,-10.16432 -0.0512,-0.0617 -0.18114,-0.46696 -0.28875,-0.90059 -0.25681,-1.03478 -1.39843,-3.87985 -3.10218,-7.73109 -0.68075,-1.53876 -2.73964,-5.27157 -3.7593,-6.81567 -0.56889,-0.86148 -1.14215,-1.75683 -1.27392,-1.98966 -0.41104,-0.72633 -1.53242,-2.34737 -1.99136,-2.87867 -0.24135,-0.2794 -0.67886,-0.87379 -0.97226,-1.32087 -0.988,-1.5055 -2.3239,-3.08489 -5.10635,-6.03703 -1.61707,-1.71568 -4.11087,-4.14691 -4.93173,-4.808 -0.19129,-0.15405 -0.67715,-0.57986 -1.07968,-0.94623 -0.40254,-0.36637 -0.93146,-0.79588 -1.17538,-0.95446 -0.24392,-0.15858 -0.68207,-0.50252 -0.97367,-0.76432 -0.2916,-0.2618 -0.73972,-0.61066 -0.99584,-0.77523 -0.25611,-0.16458 -0.76122,-0.55914 -1.12246,-0.87679 -0.60132,-0.52878 -2.2345,-1.65203 -3.24805,-2.23391 -0.22723,-0.13046 -0.56555,-0.3745 -0.75182,-0.54232 -0.29661,-0.26723 -1.83298,-1.27251 -1.94478,-1.27251 -0.0229,0 -0.24236,-0.12766 -0.48774,-0.2837 -1.34964,-0.85824 -7.02319,-3.77449 -7.76981,-3.99375 -0.11642,-0.0342 -0.36407,-0.15046 -0.55034,-0.25837 -0.18626,-0.10792 -0.69477,-0.33363 -1.13002,-0.50159 -0.43523,-0.16795 -0.85433,-0.34156 -0.93133,-0.3858 -0.28926,-0.1662 -2.42581,-0.928 -4.13039,-1.47271 -0.97181,-0.31055 -2.07554,-0.67671 -2.45274,-0.81369 -0.37721,-0.13698 -0.75429,-0.24905 -0.83796,-0.24905 -0.0837,0 -0.59421,-0.15118 -1.13451,-0.33596 -1.286,-0.43978 -3.063294,-0.82126 -6.485704,-1.39208 -3.08302,-0.51422 -4.94331,-0.74232 -7.62,-0.93434 -0.9779,-0.0701 -2.29549,-0.17133 -2.92798,-0.22483 -0.88243,-0.0747 -1.19362,-0.0739 -1.33757,0.003 -0.14243,0.0762 -0.29856,0.0774 -0.64848,0.005 -0.34001,-0.0706 -1.23555,-0.0721 -3.41431,-0.006 -4.181,0.12749 -7.779462,0.44507 -10.594662,0.93503 -0.76835,0.13372 -2.21615,0.38328 -3.21734,0.55458 -2.67092,0.45699 -3.65434,0.71505 -7.95866,2.08843 -4.84101,1.54461 -11.17414,4.28406 -14.04612,6.07576 -0.53081,0.33115 -1.31186,0.7698 -1.73566,0.97477 -0.42381,0.20497 -1.1152,0.63597 -1.53643,0.95778 -0.42123,0.32181 -1.22133,0.85485 -1.778,1.18452 -0.55667,0.32968 -1.30669,0.80312 -1.66671,1.05208 -0.98684,0.68244 -4.33909,3.33668 -5.01563,3.97127 -0.32731,0.30702 -0.76657,0.67402 -0.97612,0.81554 -0.90649,0.61223 -6.50895,6.32953 -8.90012,9.08256 -2.14144,2.46552 -6.13722,8.23757 -6.90607,9.97606 -0.11153,0.25221 -0.47537,0.843 -0.80852,1.31288 -0.33315,0.46988 -0.70759,1.10341 -0.83208,1.40786 -0.1245,0.30444 -0.51452,1.12504 -0.8667,1.82354 -0.83735,1.66071 -1.56123,3.31233 -2.04483,4.66552 -0.21461,0.60049 -0.52019,1.37756 -0.67907,1.72681 -0.5239205,1.15168 -0.9954205,2.39604 -1.3634405,3.59833 -0.55346,1.80809 -1.26346,4.45103 -1.51252,5.63033 -0.12293,0.58209 -0.33377,1.45839 -0.46852,1.94734 -0.50616,1.8366 -0.96662,4.75097 -1.14373,7.239 -0.0663,0.93133 -0.16712,2.22673 -0.22405,2.87866 -0.14422,1.65146 -0.14499,10.86391 -0.001,12.40367 0.38975,4.16889 0.84548,6.98612 1.67075,10.32821 0.94274,3.8178 1.77396,6.63649 2.5720301,8.72179 0.2406004,0.62865 0.5915904,1.5621 0.7800004,2.07433 0.68664,1.86686 1.43366,3.553 1.76355,3.98061 0.18183,0.23567 0.48322,0.81353 0.66976,1.28414 0.32707,0.82511 1.86724,3.91564 2.08091,4.17559 0.0574,0.0699 0.32571,0.508 0.59621,0.97366 0.53514,0.92125 1.28312,2.07306 2.03052,3.12679 0.26194,0.36929 0.57105,0.8585 0.6869,1.08713 0.11586,0.22863 0.35528,0.57418 0.53205,0.76789 0.17677,0.19371 0.42752,0.52364 0.55721,0.73319 0.30353,0.49041 0.83647,1.16917 2.19373,2.794 2.14627,2.56938 4.65575,5.27148 7.51178,8.08834 2.20306,2.17286 3.16206,3.03255 3.7886,3.39634 0.48835,0.28354 1.24312,0.85833 1.9109,1.45521 0.71786,0.64165 2.24039,1.76094 3.09978,2.2788 0.39874,0.24028 1.23694,0.80666 1.86266,1.25861 1.73064,1.25002 1.97073,1.38916 6.81035,3.94685 1.71623,0.90702 2.08954,1.07733 4.826,2.2017 5.2335,2.15036 6.84689,2.71022 10.20233,3.54033 4.67426,1.15636 5.27625,1.28619 7.62,1.64332 2.66859,0.40663 5.724542,0.7404 7.408342,0.80913 2.10293,0.0858 9.14015,0.0313 11.13366,-0.0863 z"
       id="path4498"
       inkscape:connector-curvature="0"
       inkscape:export-xdpi="300.01477"
       inkscape:export-ydpi="300.01477" />
    <g
       id="layer1-1"
       inkscape:label="Layer 1"
       transform="matrix(0.69806237,0,0,0.69806237,8.4085551,90.021732)">
      <g
         transform="translate(-6.0476188,-8.3154759)"
         id="g4563">
        <path
           inkscape:connector-curvature="0"
           id="path4531"
           d="m 64.25106,183.73901 c -25.75602,-25.72056 -46.8612,-46.73541 -46.9004,-46.69966 -0.0392,0.0357 -0.0142,-0.0434 0.0554,-0.17591 0.0697,-0.13249 21.16887,-21.31441 46.88704,-47.070935 32.70044,-32.749207 46.82567,-46.819129 46.97767,-46.793748 0.11955,0.01996 16.42694,16.296669 36.23864,36.170461 19.81169,19.873792 40.87625,40.967122 46.81012,46.874062 9.4881,9.44504 10.77392,10.76781 10.66498,10.97136 -0.21085,0.394 -93.49228,93.43467 -93.70448,93.46265 -0.12431,0.0164 -17.90906,-17.65842 -47.02903,-46.73828 z m 48.2714,41.15475 c 2.20707,-1.88318 5.05416,-4.65561 15.0641,-14.6691 11.51445,-11.51853 20.34826,-20.59166 24.59982,-25.26624 1.79507,-1.97366 1.87555,-2.08273 1.78717,-2.42191 -0.16352,-0.62752 -9.37754,-10.11115 -25.42654,-26.17055 -11.01596,-11.02309 -16.21546,-16.10792 -17.01514,-16.63988 -0.24025,-0.15982 -0.30176,-0.1599 -0.54201,-7.3e-4 -0.77471,0.5134 -6.19267,5.814 -17.25697,16.88312 -14.32659,14.33289 -23.85685,24.0963 -25.08007,25.69368 l -0.29976,0.39146 0.31342,0.4109 c 1.1253,1.47537 9.71251,10.29781 21.63657,22.22929 13.17892,13.18714 20.60538,20.35946 21.08083,20.35946 0.11086,0 0.62323,-0.35977 1.13858,-0.7995 z m 45.55917,-46.03445 c 2.6539,-2.28505 14.32237,-13.71002 25.68075,-25.14488 8.48253,-8.53966 15.89912,-16.14262 16.23711,-16.64514 0.14146,-0.21031 0.15539,-0.33923 0.0586,-0.54201 -0.58313,-1.2215 -35.4091,-35.99215 -41.67577,-41.609587 -0.6097,-0.54653 -1.16007,-0.99369 -1.22306,-0.99369 -0.13759,0 -2.15078,1.829665 -4.70541,4.276479 -5.04038,4.827638 -21.79053,21.410078 -28.10985,27.828418 -7.66023,7.78024 -10.19237,10.44164 -10.19237,10.71262 0,0.26917 2.21406,2.60753 9.29603,9.81792 12.50392,12.73067 33.20303,33.00254 33.69808,33.00254 0.0659,0 0.48706,-0.31621 0.93592,-0.70267 z m -91.1258,-1.62382 c 6.00286,-5.42287 35.17707,-34.52713 40.19202,-40.09566 0.28183,-0.31294 0.28546,-0.33806 0.0916,-0.63398 -0.49973,-0.76268 -4.31753,-4.67992 -15.246,-15.64307 C 77.85301,106.67749 66.703,95.783881 65.62681,95.102483 L 65.276,94.880372 63.97131,96.058338 C 59.9681,99.672692 39.612,119.76202 30.84675,128.74878 c -6.41033,6.57233 -7.51236,7.74542 -7.51236,7.99675 0,0.28181 2.28033,2.68162 9.97887,10.50173 9.93701,10.09391 29.38976,29.22638 31.43491,30.91733 0.41333,0.34174 0.56777,0.40702 0.74222,0.31364 0.12116,-0.0648 0.78061,-0.62407 1.46544,-1.24274 z"
           style="fill:#000000;fill-opacity:1;stroke-width:0.12044723" />
        <path
           inkscape:connector-curvature="0"
           style="fill:#ffffff;fill-opacity:1;stroke-width:0.12044723"
           d="m 112.52246,224.89376 c 2.32401,-1.98523 7.69668,-7.21539 18.36159,-17.87453 12.64818,-12.64134 21.4363,-21.65992 23.20953,-23.81818 0.39202,-0.47714 0.40823,-0.52966 0.24154,-0.7829 -1.28037,-1.94527 -33.26346,-34.19797 -40.13922,-40.47758 -1.95897,-1.78913 -2.90056,-2.49242 -3.33694,-2.49242 -0.51108,0 -2.10978,1.53949 -16.823322,16.20015 -20.622461,20.54837 -26.031252,26.20576 -26.031252,27.22773 0,0.19217 0.300367,0.63399 0.873247,1.28445 5.291574,6.00824 36.584417,37.01846 41.440097,41.06584 0.38435,0.32038 0.79663,0.5825 0.91618,0.5825 0.11954,0 0.69939,-0.41178 1.28855,-0.91506 z"
           id="path4554" />
        <path
           inkscape:connector-curvature="0"
           style="fill:#0065ff;fill-opacity:1;stroke-width:0.12044723"
           d="m 66.017009,179.73769 c 0.907146,-0.51996 28.015154,-27.49085 36.559951,-36.375 3.59147,-3.73412 5.77725,-6.2398 5.77725,-6.62281 0,-0.30932 -0.97753,-1.60117 -2.37055,-3.13277 -3.66591,-4.03063 -29.615042,-29.99379 -35.513377,-35.532578 -3.324345,-3.121707 -5.091339,-4.637218 -5.406715,-4.637218 -0.427764,0 -9.030135,8.350946 -23.19851,22.520466 -15.889944,15.89122 -19.630615,19.86276 -19.630615,20.84217 0,0.47618 1.329147,1.99176 6.547706,7.46609 6.849392,7.1851 33.889883,34.03447 35.778519,35.52564 0.518569,0.40943 0.656787,0.40431 1.456341,-0.054 z"
           id="path4552" />
        <path
           inkscape:connector-curvature="0"
           style="fill:#f7f704;fill-opacity:1;stroke-width:0.12044723"
           d="m 157.94526,178.97292 c 3.78159,-3.26497 27.15437,-26.41698 37.89916,-37.54119 4.31334,-4.46564 4.37474,-4.53741 4.1994,-4.90856 -0.5864,-1.24126 -35.36083,-35.95906 -41.80541,-41.737333 -1.04941,-0.940904 -1.12269,-0.9846 -1.40399,-0.837211 -1.48193,0.776462 -39.4906,38.489864 -42.55222,42.221654 -0.37683,0.45932 -0.4072,0.54667 -0.27562,0.79256 0.4088,0.76383 12.70794,13.26774 24.82489,25.23818 12.17226,12.02509 17.8468,17.47651 18.19179,17.47651 0.0582,0 0.47314,-0.31708 0.922,-0.70461 z"
           id="path4550" />
        <path
           inkscape:connector-curvature="0"
           style="fill:#e70101;fill-opacity:1;stroke-width:0.12044723"
           d="m 111.80784,132.50493 c 2.46704,-1.86328 16.10986,-15.19241 28.53403,-27.87795 10.51468,-10.735871 13.0596,-13.432157 13.0596,-13.836366 0,-0.495752 -5.72048,-6.450719 -17.64795,-18.371341 -15.17992,-15.171211 -24.0187,-23.667879 -24.62083,-23.667879 -0.24593,0 -2.13716,1.697142 -5.8467,5.246716 -10.574807,10.118765 -32.984558,32.596845 -35.925623,36.035146 -0.41,0.47932 -0.522546,0.696387 -0.468367,0.903355 0.143831,0.549439 3.305834,3.902268 12.23135,12.969519 12.868174,13.07252 29.36151,29.03787 29.99818,29.03787 0.0577,0 0.36657,-0.19758 0.68631,-0.43907 z"
           id="path4527" />
      </g>
    </g>
  </g>
</svg>
